<svg xmlns="http://www.w3.org/2000/svg" viewBox="0 0 300 100">
  <!-- Globo estilizado como fundo -->
  <circle cx="50" cy="50" r="45" fill="none" stroke="#a0b4ff" stroke-width="1" opacity="0.5"/>
  <path d="M50,5 a45,45 0 0,1 0,90 a45,45 0 0,1 0,-90" fill="none" stroke="#a0b4ff" stroke-width="1" opacity="0.5"/>
  <path d="M5,50 a45,45 0 0,1 90,0 a45,45 0 0,1 -90,0" fill="none" stroke="#a0b4ff" stroke-width="1" opacity="0.5"/>
  <path d="M15,50 a35,35 0 0,1 70,0 a35,35 0 0,1 -70,0" fill="none" stroke="#a0b4ff" stroke-width="1" opacity="0.5"/>
  <path d="M50,15 a35,35 0 0,1 0,70 a35,35 0 0,1 0,-70" fill="none" stroke="#a0b4ff" stroke-width="1" opacity="0.5"/>
  
  <!-- Logo B em verde -->
  <g>
    <!-- Letra B estilizada -->
    <path d="M20,20 C20,20 45,15 60,20 C75,25 70,40 55,40 C70,40 80,50 65,60 C50,70 20,65 20,65 Z" fill="#00e676"/>
    
    <!-- Linhas decorativas -->
    <path d="M25,25 C35,22 45,25 50,27" fill="none" stroke="#ffffff" stroke-width="2" opacity="0.7"/>
    <path d="M25,35 C35,32 45,35 50,37" fill="none" stroke="#ffffff" stroke-width="2" opacity="0.7"/>
    <path d="M25,45 C35,42 45,45 50,47" fill="none" stroke="#ffffff" stroke-width="2" opacity="0.7"/>
  </g>
  
  <!-- Texto BEEFUND -->
  <text x="100" y="50" font-family="Arial, sans-serif" font-size="24" font-weight="bold" fill="#ffffff">BEEFUND</text>
</svg>